<?xml version="1.0" standalone="no"?>
<!DOCTYPE svg PUBLIC "-//W3C//DTD SVG 20010904//EN"
 "http://www.w3.org/TR/2001/REC-SVG-20010904/DTD/svg10.dtd">
<svg version="1.0" xmlns="http://www.w3.org/2000/svg"
 width="512.000000pt" height="512.000000pt" viewBox="0 0 512.000000 512.000000"
 preserveAspectRatio="xMidYMid meet">

<g transform="translate(0.000000,512.000000) scale(0.100000,-0.100000)"
fill="#000000" stroke="none">
<path d="M857 4032 c-18 -20 -23 -87 -8 -111 6 -9 61 -17 192 -28 101 -8 187
-18 191 -21 7 -8 46 -219 213 -1156 83 -467 119 -643 131 -657 17 -18 51 -19
1040 -19 l1023 0 19 24 c15 20 37 153 120 743 101 708 102 718 83 743 l-18 25
-1007 3 -1006 2 0 -70 0 -70 945 0 c893 0 945 -1 945 -17 1 -10 -39 -294 -86
-630 l-87 -613 -932 0 -932 0 -32 183 c-18 100 -56 315 -85 477 l-52 295 700
3 c633 2 701 4 718 19 20 18 24 73 8 104 -10 19 -29 19 -730 19 l-720 0 -5 23
c-12 51 -125 673 -125 688 0 21 -23 25 -240 39 -91 6 -183 13 -206 16 -31 4
-44 0 -57 -14z"/>
<path d="M3460 2961 c0 -22 -91 -584 -96 -592 -3 -5 -113 -9 -245 -9 l-239 0
0 -45 0 -45 284 0 284 0 6 28 c10 46 96 633 96 653 0 16 -8 19 -45 19 -25 0
-45 -4 -45 -9z"/>
<path d="M2710 2315 l0 -45 55 0 55 0 0 45 0 45 -55 0 -55 0 0 -45z"/>
<path d="M1963 1978 c-65 -11 -110 -36 -153 -86 -40 -45 -70 -119 -70 -172 0
-90 71 -199 156 -240 67 -33 157 -31 228 4 227 111 176 456 -72 495 -26 4 -66
4 -89 -1z m121 -149 c102 -80 54 -239 -73 -239 -79 0 -141 58 -141 131 0 36
32 90 64 110 43 26 115 25 150 -2z"/>
<path d="M3187 1979 c-171 -26 -269 -220 -191 -377 84 -168 309 -197 434 -54
136 154 51 394 -153 430 -23 4 -63 5 -90 1z m112 -143 c41 -22 65 -64 65 -116
0 -81 -52 -130 -139 -130 -38 0 -52 6 -83 34 -35 33 -37 38 -37 96 0 58 2 63
37 96 31 28 45 34 83 34 25 0 59 -7 74 -14z"/>
</g>
</svg>
